<?xml version="1.0" encoding="UTF-8"?><svg id="Capa_1" xmlns="http://www.w3.org/2000/svg" viewBox="0 0 358 258.79"><defs><style>.cls-1{fill:#fff;}.cls-2{fill:#d0202b;}.cls-3{fill:#9cefba;}.cls-4{fill:#95d5e8;}</style></defs><path class="cls-2" d="m178.13,62.21l-53.49,92.65c-.39.67.1,1.51.87,1.51h106.98c.78,0,1.26-.84.87-1.51l-53.49-92.65c-.39-.67-1.36-.67-1.75,0Z"/><path class="cls-1" d="m174.71,139c0-2.61,1.82-4.5,4.29-4.5,2.62,0,4.29,1.89,4.29,4.5s-1.67,4.51-4.29,4.51-4.29-1.97-4.29-4.51Zm1.82-10.39l-1.02-34.9h6.98l-1.02,34.9h-4.94Z"/><path class="cls-3" d="m224.58,253.13c-69.13,0-125.36-55.51-125.36-123.74S155.45,5.66,224.58,5.66s125.37,55.51,125.37,123.74-56.24,123.74-125.37,123.74Zm0-234.06c-61.73,0-111.95,49.49-111.95,110.33s50.22,110.33,111.95,110.33,111.96-49.49,111.96-110.33-50.22-110.33-111.96-110.33Z"/><path class="cls-4" d="m133.42,253.13c-69.13,0-125.36-55.51-125.36-123.74S64.29,5.65,133.42,5.65s125.36,55.51,125.36,123.74-56.24,123.74-125.36,123.74Zm0-234.07c-61.73,0-111.95,49.49-111.95,110.33s50.22,110.33,111.95,110.33,111.95-49.49,111.95-110.33S195.15,19.06,133.42,19.06Z"/></svg>