<?xml version="1.0" encoding="UTF-8"?><svg id="Capa_1" xmlns="http://www.w3.org/2000/svg" viewBox="0 0 358 258.79"><defs><style>.cls-1{fill:#bababa;}.cls-2{fill:#3a3a3a;}.cls-3{fill:#9cefba;}</style></defs><path class="cls-3" d="m228.02,222.59c-3.77-6.64-7.67-13.51-11.68-20.17-.19-.3-.4-.6-.63-.89-.9-1.1-2.2-1.29-3.49-.48-1.19.75-1.58,2-1.02,3.27.2.45.42.89.66,1.31l10.67,18.49c.45.78.91,1.56,1.37,2.34,1.13,1.91,2.3,3.89,3.31,5.89.75,1.5.71,3.14-.12,4.51-.84,1.37-2.29,2.17-3.99,2.18-6.48.06-12.97.05-19.45.06h-5.55l.83-.82c1.35-1.33,2.71-2.66,4.03-4.02,1.29-1.31,1.33-2.81.11-4.02-.71-.7-2.17-1.6-4,.2-3.12,3.1-6.22,6.21-9.31,9.34-1.49,1.51-1.49,2.71,0,4.28.78.81,1.57,1.61,2.37,2.4l3.27,3.31c1.23,1.26,2.46,2.52,3.71,3.75.62.61,1.37.92,2.1.92.68,0,1.34-.27,1.88-.8,1.22-1.21,1.22-2.78,0-4.1-.25-.27-.52-.53-.78-.79l-3.81-3.97h24.35c2.49,0,4.67-.73,6.48-2.17,4.16-3.31,5.17-8.66,2.5-13.33l-3.81-6.7Zm-31.37,17.62l-.32-.94s.06-.06.1-.1c.08.03.15.03.22.1v.94Z"/><path class="cls-3" d="m167.11,239.2c-.6-.13-1.22-.13-1.67-.13-2.63,0-5.26,0-7.89,0h-7.04c-5.15.01-10.31.02-15.47,0-2.23,0-4.19-1.36-4.65-3.23-.36-1.44-.07-2.87.9-4.5,2.48-4.16,4.94-8.32,7.36-12.51,1.37-2.38,2.7-4.78,4.04-7.19l.68-1.22,1.74,6.59c.43,1.63,1.86,2.61,3.36,2.27.8-.17,1.38-.55,1.74-1.12.38-.63.45-1.4.2-2.37-1.07-4.18-2.17-8.36-3.27-12.53-.63-2.37-1.82-3.04-4.24-2.4-3.84,1.01-7.67,2.03-11.51,3.05-.68.18-1.46.42-2.12,1-1.41,1.21-1.02,2.47-.79,2.96.78,1.64,1.99,1.88,2.79,1.77.4-.04.79-.14,1.18-.25l6.19-1.69-5.64,9.75c-2.19,3.79-4.38,7.57-6.58,11.35-.99,1.71-2.24,4.34-1.55,7.43,1.17,5.21,5.26,8.58,10.42,8.58h.01c5.89,0,11.77-.01,17.67,0h12.62c.5,0,1.09-.02,1.66-.2,1.35-.41,2.1-1.41,2.07-2.74-.03-1.39-.84-2.35-2.22-2.66Z"/><path class="cls-3" d="m199.67,183.21c.95.24,1.71.16,2.34-.23.65-.4,1.08-1.09,1.31-2.11.34-1.5.69-3,1.09-4.48.37-1.39.75-2.77,1.14-4.15l1.01-3.68c.18-.64.45-1.6-.17-2.55-.87-1.34-1.99-1.41-2.56-1.4-1.17.1-2.08.82-2.43,1.93-.2.64-.37,1.29-.55,1.94-.17.62-.33,1.24-.52,1.86-.21.68-.37,1.37-.53,2.08-.08.34-.16.7-.25,1.04-.94-1.56-1.83-3.06-2.67-4.58-3.66-6.61-6.56-11.66-9.42-16.38-2.08-3.42-5.41-5-9.65-4.57-3.34.34-5.93,2.17-7.89,5.58l-12.87,22.31c-.6,1.03-1.21,2.06-1.79,3.09-.31.54-1.25,2.19.27,3.61.63.59,1.29.88,1.95.88.11,0,.21,0,.32-.02.86-.12,1.6-.71,2.26-1.81l.82-1.36c1.74-2.9,3.47-5.8,5.16-8.73,1.67-2.89,3.31-5.79,4.96-8.69,1.32-2.32,2.64-4.65,3.97-6.97.66-1.15,1.51-1.85,2.62-2.15,2.57-.7,4.42.19,5.96,2.87l3.88,6.72c2.5,4.32,4.99,8.65,7.48,12.97-.93-.28-1.88-.51-2.83-.73-1.36-.33-2.64-.64-3.89-1.1-.8-.29-1.62-.25-2.33.12-.7.37-1.22,1.05-1.41,1.85-.17.73-.32,2.49,2.06,3.27,3.9,1.27,7.93,2.28,11.82,3.25l1.33.33Z"/><path class="cls-1" d="m97.05,15.24c3.68-.14,7.51-.64,11.16.04,3.44.65,6.43,2.33,8.86,4.84,2.67,2.77,6.89-1.46,4.22-4.22-5.4-5.59-12.46-7.16-19.99-6.84-5.93.25-13.38,1.33-17.72-3.74-2.5-2.92-6.71,1.32-4.22,4.22,4.34,5.08,11.4,5.94,17.69,5.69Z"/><path class="cls-2" d="m277.63,137.25c-.12-.09-.18-.21-.32-.29-20.72-12.33-41.08-25.27-61.81-37.6-.46-.27-.91-.38-1.34-.41-1.73-.52-3.96.37-3.96,2.72,0,11.17.06,22.35.07,33.52-19.6-12.04-38.84-24.67-58.49-36.62-1.88-1.14-3.62.06-4.2,1.67-.06.12-.1.25-.14.38-.01.05-.02.1-.03.15-.08.27-.18.53-.18.86,0,11.9-.1,23.8-.12,35.7h-10.81c-1.15-34.92-2.81-69.82-3.95-104.75-.05-1.4-.88-2.28-1.9-2.66-.41-.22-.86-.37-1.35-.37h-20.84c-1.61,0-2.99,1.37-2.99,2.98,0,.17.07.32.1.49-1.98,34.8-5.37,69.5-7.36,104.3h-10.42c-.48-.02-.95.05-1.4.22-.19.07-.34.18-.5.28-.16.1-.31.2-.44.33-.12.13-.22.27-.31.42-.11.16-.22.32-.29.52-.17.44-.25.91-.22,1.39v70.26c0,.49.1.91.27,1.27-.23,1.63.68,3.45,2.81,3.45,11.2,0,22.39.09,33.59.12v-6.01c-10.23-.03-20.46-.07-30.69-.08v-66.21h59.5c1.55.08,3.16-.85,3.16-2.85,0-11.33.09-22.65.11-33.98,19.49,11.99,38.63,24.54,58.18,36.43.11.07.22.07.33.12,1.76.99,4.55.21,4.55-2.44,0-11.27-.06-22.54-.08-33.81,19.16,11.48,38.06,23.38,57.24,34.82v68.6c-4.63,0-9.27-.03-13.9-.05v.05s-22.63-.1-22.63-.1v5.94c12.82.05,25.65.14,38.47.14.28,0,.5-.09.74-.15,1.59.14,3.29-.78,3.29-2.83v-73.3c0-1.38-.78-2.24-1.76-2.63ZM111.2,35.53h15.31c.12,3.45.27,6.9.39,10.36h-16.37c.23-3.45.47-6.9.68-10.36Zm-7.2,101.8c1.63-28.52,4.17-56.98,6.13-85.48h16.99c1.06,28.49,2.28,56.98,3.22,85.48h-26.34Z"/><path class="cls-1" d="m136.69,155.37c0-1.23-1-2.23-2.23-2.23s-2.23,1-2.23,2.23v11.13h-15.59c-1.23,0-2.23,1-2.23,2.23s1,2.23,2.23,2.23h20.04v-15.59Z"/><path class="cls-1" d="m243.57,170.95v-15.59c0-1.23-1-2.23-2.23-2.23s-2.23,1-2.23,2.23v11.13h-15.59c-1.23,0-2.23,1-2.23,2.23s1,2.23,2.23,2.23h20.04Z"/></svg>