<?xml version="1.0" encoding="UTF-8"?><svg id="Capa_1" xmlns="http://www.w3.org/2000/svg" viewBox="0 0 358 258.79"><defs><style>.cls-1{fill:#bababa;}.cls-2{fill:#3a3a3a;}.cls-3{fill:#9cefba;}.cls-4{fill:#95d5e8;}</style></defs><path class="cls-1" d="m163.57,159.51l-5.85-4.04c.28-2.16.31-4.33.05-6.45l5.7-2.9c1.42-.72,2.1-2.36,1.61-3.88l-1.45-4.48c-.48-1.48-1.96-2.41-3.5-2.2l-7.38.99c-1.37-1.83-2.98-3.5-4.83-4.93l1.52-6.65c.35-1.55-.47-3.12-1.94-3.72l-4.37-1.75c-1.45-.58-3.1-.04-3.93,1.28l-3.55,5.64c-2.26-.32-4.52-.37-6.73-.1l-4.06-6.12c-.88-1.32-2.59-1.81-4.03-1.15l-4.28,1.96c-1.42.65-2.17,2.22-1.78,3.73l1.68,6.59c-2,1.49-3.79,3.28-5.32,5.34l-7.41-1.53c-1.56-.32-3.11.54-3.67,2.02l-1.66,4.4c-.55,1.46.02,3.1,1.36,3.91l6.42,3.85c-.22,2.04-.21,4.08.04,6.07l-5.64,4.38c-1.25.97-1.61,2.72-.85,4.11l2.27,4.12c.75,1.37,2.38,2,3.85,1.5l5.36-1.8c1.65,2.2,3.64,4.15,5.97,5.76l-1.12,6.42c-.27,1.57.63,3.1,2.14,3.61l4.45,1.52c1.48.5,3.1-.12,3.86-1.48l3.09-5.54c2.61.24,5.21.09,7.72-.44l3.19,5.02c.85,1.34,2.55,1.86,4.01,1.23l4.32-1.87c1.43-.62,2.21-2.18,1.86-3.69l-1.54-6.63c1.29-1.13,2.46-2.4,3.52-3.79l6.3,1.72c1.53.42,3.14-.34,3.79-1.79l1.93-4.29c.64-1.42.17-3.1-1.11-3.98Zm-35.9,3.33c-5.91-2.37-8.77-9.08-6.4-14.98,2.37-5.91,9.08-8.77,14.98-6.4,5.91,2.37,8.77,9.08,6.4,14.98-2.37,5.91-9.08,8.77-14.98,6.4Z"/><path class="cls-3" d="m99.38,107.78l-4.27-4.7c.68-1.83,1.15-3.7,1.35-5.59l5.54-1.37c1.38-.34,2.3-1.63,2.18-3.04l-.36-4.19c-.12-1.39-1.21-2.49-2.6-2.62l-6.62-.63c-.82-1.87-1.89-3.65-3.2-5.27l2.67-5.47c.62-1.27.23-2.81-.94-3.63l-3.44-2.41c-1.14-.8-2.69-.67-3.68.31l-4.23,4.19c-1.9-.74-3.85-1.24-5.83-1.46l-2.29-6.15c-.5-1.33-1.88-2.1-3.27-1.82l-4.12.84c-1.36.28-2.34,1.49-2.31,2.88l.12,6.07c-2.04.89-3.96,2.08-5.71,3.56l-6.13-2.83c-1.29-.59-2.82-.16-3.61,1.01l-2.34,3.49c-.77,1.16-.61,2.7.39,3.67l4.8,4.66c-.61,1.73-1.01,3.5-1.2,5.29l-5.79,2.66c-1.29.59-1.95,2.04-1.57,3.4l1.14,4.04c.38,1.34,1.66,2.22,3.05,2.09l5.03-.48c.98,2.25,2.32,4.35,4.02,6.22l-2.27,5.36c-.55,1.31-.08,2.82,1.13,3.57l3.56,2.23c1.18.74,2.72.52,3.66-.5l3.81-4.19c2.22.74,4.51,1.13,6.8,1.18l1.75,5.01c.47,1.34,1.84,2.14,3.24,1.88l4.13-.75c1.37-.25,2.37-1.44,2.37-2.83v-6.08c1.35-.72,2.63-1.58,3.83-2.58l5.13,2.78c1.25.68,2.8.34,3.66-.78l2.55-3.34c.85-1.11.78-2.66-.16-3.69Zm-31.89-4.39c-4.65-3.26-5.78-9.67-2.52-14.33,3.26-4.65,9.67-5.78,14.33-2.52,4.65,3.26,5.78,9.67,2.52,14.33-3.26,4.65-9.67,5.78-14.33,2.52Z"/><path class="cls-2" d="m314.95,237.6c-8.56-18.35-11.35-39.71-13.9-59.61-1.06-8.24-1.92-16.51-2.75-24.78-.6-6.04-1.1-11.83-3.45-17.52-2.16-5.23-5.78-10.09-11.35-11.91-5.05-1.65-10.77-.76-14.31,3.4,0,.01,0,.02-.02.03-2.25-2.68-4.96-4.93-8.46-6.34-4.66-1.89-9.48-1.53-13.52,1.54-2.55,1.94-4.69,4.68-5.77,7.75-2.07-2.47-4.4-4.46-7.56-5.81-4.9-2.08-10.66-2.11-14.91,1.4-2.19,1.81-4.1,4.45-5.11,7.33-2.88-4.78-5.75-9.56-8.63-14.34-3.33-5.53-6.41-12.87-11.95-16.6-4.38-2.95-10.32-2.62-13.6,1.69-.02.02-.02.04-.03.06-3.38,3.1-3.38,7.92-1.99,12.27,2.3,7.22,5.44,14.27,8.16,21.35,5.45,14.17,13.74,31.18,19.51,45.68-10.75-.88-20.75-6.81-31.76-5.17-8.77,1.31-17.47,9.74-14.22,19.18.34,1,1.19,1.39,2.03,1.36,7.97,3.73,16.27,6.69,24.21,10.48.08.04.15.03.23.06,6.11,7.44,13.08,14.07,21.19,19.35,9.61,6.25,20.37,10.46,31.38,13.52,2.38,3.76,5.22,7.21,7.56,10.99.02.04.06.06.09.1.29.57.83.98,1.69.92,22.64-1.64,44.38-5.47,65.91-12.81.95-.32,1.36-1.11,1.38-1.9.2-.49.23-1.07-.05-1.67Zm-128.55-34.08c-.96-1.27-2.68-.97-3.47-.07-6.65-2.91-13.45-5.49-20.02-8.6-.63-3.41.86-6.73,3.39-9.18,3.35-3.25,8.08-4.1,12.6-3.89,9.77.44,18.7,5.4,28.55,5.54.34,0,.62-.06.87-.18,1.26.03,2.52-.9,1.97-2.35-4.85-12.61-12.93-28.46-17.78-41.06-2.42-6.3-4.85-12.61-7.27-18.91-1.79-4.66-7.09-13.96-1.78-18.87.41-.38,2.41-2.74,6.55-1.05,2.86,1.17,4.63,4.15,6.2,6.69,3.51,5.67,6.88,11.42,10.31,17.13,6.99,11.61,13.97,23.23,20.96,34.84,1.34,2.23,4.84.2,3.49-2.04-4.52-7.51-9.03-15.02-13.55-22.52-.01-.04,0-.08-.01-.13-1.4-4.5,2.84-10.55,7.2-11.65,5.18-1.31,10.67,1.56,13.84,5.56,5.62,7.09,9.98,15.37,14.39,23.24,1.27,2.27,4.76.23,3.49-2.04-3.67-6.55-7.4-13.15-11.65-19.36,0-.04.02-.07.02-.12-.05-3.71,2.48-7.31,5.5-9.3,3.41-2.25,7.34-1.68,10.78.25,7.92,4.43,10.83,13.99,13.76,21.96.89,2.42,4.8,1.37,3.9-1.07-1.95-5.29-4-11.04-7.11-15.91.17-.11.35-.21.51-.39,4.13-4.85,11.34-3.29,15.3.96,3.41,3.67,5.16,9.04,6,13.9.81,4.67,1.02,9.5,1.51,14.21,1.81,17.66,3.98,35.36,7.8,52.71,1.96,8.88,4.39,17.72,8.06,26.05-20.28,6.72-40.71,10.38-62,11.99-2.27-3.48-4.89-6.73-7.08-10.27-.17-.56-.57-1.06-1.31-1.26-10.76-2.93-21.21-6.93-30.65-12.95-9.06-5.78-16.81-13.31-23.28-21.85Z"/><path class="cls-4" d="m224.24,58.08l-12.69-2.87c-.95-3.58-2.27-7-3.99-10.19l7.67-8.78c2.01-2.29,2.04-5.66.09-8l-5.45-6.52c-1.91-2.28-5.17-2.87-7.76-1.41l-11.85,6.72c-3.35-2-6.94-3.61-10.76-4.74l-1.94-12.31c-.47-3.01-3.03-5.19-6.08-5.19h-8.5c-2.98,0-5.52,2.12-6.05,5.05l-2.19,11.99c-3.75.95-7.34,2.3-10.68,4.09l-11.06-7.62c-2.51-1.73-5.85-1.38-7.95.83l-5.85,6.16c-2.05,2.16-2.26,5.47-.51,7.87l7.33,10.03c-2.2,3.67-3.91,7.65-5.05,11.88l-13.6,2.45c-3,.54-5.13,3.14-5.06,6.19l.18,8.5c.06,2.98,2.24,5.47,5.18,5.94l13.5,2.16c.96,3.33,2.25,6.51,3.88,9.49l-6.59,11.29c-1.54,2.63-.94,5.94,1.42,7.87l6.58,5.38c1.14.93,2.52,1.39,3.89,1.39s2.84-.49,3.99-1.47l7.86-6.69c4.06,2.43,8.51,4.26,13.24,5.38l2.48,11.67c.61,2.87,3.11,4.88,6.01,4.88.11,0,10.67-1.09,13.12-2.57-2.38-4.93-6.05-14.4-3.81-22.39,1.72-6.16,7.71-10.51,14.06-9.73,5.18.64,8.16-.03,18.83,18.53,1.19-.23,8.65-7.16,8.65-7.16,2.09-2.11,2.37-5.42.67-7.85l-7.15-10.22c1.27-2.56,2.31-5.24,3.1-8.04l11.85-1.36c3.03-.35,5.32-2.81,5.44-5.86l.36-8.49c.13-2.97-1.89-5.61-4.79-6.26Zm-58.58,32.72c-13.06,0-23.65-10.59-23.65-23.65s10.59-23.65,23.65-23.65,23.65,10.59,23.65,23.65-10.59,23.65-23.65,23.65Z"/></svg>