<?xml version="1.0" encoding="UTF-8"?><svg id="Capa_1" xmlns="http://www.w3.org/2000/svg" viewBox="0 0 358 258.79"><defs><style>.cls-1{fill:#bababa;}.cls-2{fill:#3a3a3a;}.cls-3{fill:#9cefba;}.cls-4{fill:#95d5e8;}</style></defs><path class="cls-1" d="m73.83,100.05H28.16v-46.47h32.74c.69-1.11,1.41-2.19,2.1-3.29H24.79v53.05h52.41v-43.32c-1.13,1.75-2.26,3.5-3.37,5.26v34.77Z"/><path class="cls-3" d="m82.95,34.7c-1.68-1.44-4.54-1.31-5.83.63-3.27,4.93-21.98,35.04-26.91,43.58-2.15-3.54-4.31-7.08-6.46-10.62-.42-.7-1.5-1.16-2.23-1.21-.8-.06-1.79.25-2.4.85-.63.63-1.12,1.47-1.15,2.41-.04,1,.26,1.74.76,2.57,3.16,5.2,5.88,10.26,9.04,15.46.42.7,3.97,3.72,7.33-1.23,6.78-10,26.33-42.94,28.52-46.24,1.28-1.93,1.16-4.63-.67-6.2Z"/><path class="cls-2" d="m267.36,11.39c.16-1.61-.53-3.39-2.13-3.39H6.91c-1.61,0-2.3,1.8-2.13,3.42,0,.08-.04.14-.04.22-.84,78.38.71,156.77-.13,235.16-.02,2.02,1.24,2.93,2.44,2.81.18.06.34.15.55.15,58.96,0,117.91,1.02,176.86,1.03,2.91,0,2.92-5.91,0-5.91-58.44,0-116.87-1-175.3-1.03.76-76.65-.68-153.3.09-229.94h253.58c.02,6.98.12,13.96.12,20.94,0,3.8,4.53,3.81,4.53,0,0-7.82-.13-15.64-.13-23.46Z"/><path class="cls-1" d="m100.02,56.77c15.43,0,30.86,0,46.3,0,3.66,0,3.66-5.68,0-5.68-15.43,0-30.86,0-46.3,0-3.66,0-3.66,5.68,0,5.68h0Z"/><path class="cls-1" d="m99.16,80.58c34.05,0,68.09,0,102.14,0,1.97,0,1.98-5.68,0-5.68-34.05,0-68.09,0-102.14,0-1.97,0-1.98,5.68,0,5.68h0Z"/><path class="cls-1" d="m98.09,103.07h87.14c1.97,0,1.98-5.68,0-5.68h-87.14c-1.97,0-1.98,5.68,0,5.68h0Z"/><path class="cls-1" d="m100.02,137.46h47.62c3.66,0,3.66-5.68,0-5.68h-47.62c-3.66,0-3.66,5.68,0,5.68h0Z"/><path class="cls-1" d="m99.88,162.59c28.81,0,57.61,0,86.42,0,1.97,0,1.98-5.68,0-5.68h-86.42c-1.97,0-1.98,5.68,0,5.68h0Z"/><path class="cls-1" d="m98.45,185.08h73.92c1.97,0,1.98-5.68,0-5.68h-73.92c-1.97,0-1.98,5.68,0,5.68h0Z"/><path class="cls-4" d="m278.9,74.81c.7-1-10.12-24.42-13.55-24.37-1.17.02-6.73,7.57-13.6,23.77-1.7,4,19.37,11.72,27.16.6Z"/><path class="cls-4" d="m241.1,136.42c-9.22.48-20.45,39.49-21.84,49.17-.38,2.62,2.38,2.56,4.29,1.06,6.34-5.9,13.62-10.62,21.6-13.99,1.08-.45,1.48-1.84,1.07-2.89-1.04-10.33-3.62-33.43-5.12-33.35Z"/><path class="cls-4" d="m288.99,136.42c-1.12-.36-5.55,21.1-6.57,31.32-.18,1.86.75,3.02,1.35,3.31,8.69,4.15,22.54,18.96,22.7,19.07,1.62,1.43,3.72-.46,3.61-2.36-.46-9.65-9.76-47.67-21.11-51.34Z"/><path class="cls-4" d="m274.29,180.19c-1.17,0-2.37,1.05-2.28,2.28.46,6.53-1.39,13.28-6.63,17.39-2.47-1.98-4.69-4.33-6.16-7.14-1.57-3.01-1.88-6.32-.93-9.64.81-2.83-3.6-4.04-4.4-1.21-1.25,4.37-.64,8.79,1.26,12.91,2.68,5.8,10.15,10.71,11.27,10,7.57-4.8,10.78-13.6,10.17-22.3-.09-1.23-.99-2.28-2.28-2.28Z"/><path class="cls-4" d="m265.13,191.12c2.43-2.7,2.44-5.97-.13-8.5-2.39,3-2.47,5.68.13,8.5Z"/><path class="cls-4" d="m276.33,175.02c17.74-69.1,3.49-96.8,3.49-96.8-13.58,9.57-25.98,1.55-28.84-.13,0,0-14.91,37.92,3.81,97.5,4.63,3.23,20.27,4.37,21.54-.56Zm-11.04-79.99c7.23,0,13.09,5.86,13.09,13.09s-5.86,13.09-13.09,13.09-13.09-5.86-13.09-13.09,5.86-13.09,13.09-13.09Z"/><path class="cls-4" d="m343.69,185.65c.41-8.38-3.21-17.06-9.88-22.22-6.55-5.07-18.26-6.99-25.67-3.28,12.04,24.38,2.89,40.63-2.01,34.88-18.36-21.6-27.12-19.74-26.7-18.16,5.71,21.53-13.32,34.71-13.96,34.26-20.35-14.02-16.36-34.32-16.36-34.32,0,0-24.38,15.19-29.94,15.92-11.55,1.52-1.9-20.88,2.19-32.42-2.83-1.04-24.06,12.81-26.09,23.01-12.24,3.36-20.85,16.41-18.48,29.04,2.35,12.54,14.89,20.97,27.21,20.13,2.19,7.23,9.05,12.38,16.23,14.17,7.62,1.9,15.98-.31,21.64-5.7,6.35,5.15,14.7,7.41,22.82,5.96,7.32-1.31,13.9-5.91,18.01-12.08,5.22,6.43,12.69,11.39,21.15,11.52,9.17.13,17.83-4.6,23.25-11.86,10.94-.67,21.04-7.87,24.83-18.25,3.87-10.6.27-23.31-8.27-30.58Z"/></svg>